<svg height="80pt" viewBox="0 0 512 512" width="80pt" xmlns="http://www.w3.org/2000/svg"><path d="m489.683594 118.867188h-467.367188c-5.785156-5.789063-9.03125-9.03125-14.816406-14.816407v-81.734375l14.816406-14.816406h467.367188c5.785156 5.785156 9.03125 9.03125 14.816406 14.816406v81.734375c-5.785156 5.785157-9.03125 9.027344-14.816406 14.816407zm0 0" fill="#cad8ea"/><path d="m489.683594 230.230469h-467.367188c-5.785156-5.785157-9.03125-9.03125-14.816406-14.816407v-81.730468l14.816406-14.816406h467.367188c5.785156 5.785156 9.03125 9.03125 14.816406 14.816406v81.730468c-5.785156 5.789063-9.03125 9.03125-14.816406 14.816407zm0 0" fill="#cad8ea"/><path d="m489.683594 341.597656h-467.367188c-5.785156-5.785156-9.03125-9.03125-14.816406-14.816406v-81.730469c5.785156-5.789062 9.03125-9.03125 14.816406-14.820312h467.367188c5.785156 5.789062 9.03125 9.03125 14.816406 14.820312v81.730469c-5.785156 5.785156-9.03125 9.03125-14.816406 14.816406zm0 0" fill="#cad8ea"/><path d="m37.5 104.050781v-81.734375l14.816406-14.816406h-30l-14.816406 14.816406v81.734375l14.816406 14.816407h30zm0 0" fill="#b0c4e0"/><path d="m37.5 215.414062v-81.730468l14.816406-14.816406h-30l-14.816406 14.816406v81.730468l14.816406 14.816407h30zm0 0" fill="#b0c4e0"/><path d="m37.5 326.78125v-81.730469c5.785156-5.789062 9.03125-9.03125 14.816406-14.820312h-30c-5.785156 5.789062-9.03125 9.03125-14.816406 14.820312v81.730469l14.816406 14.816406h30zm0 0" fill="#b0c4e0"/><path d="m325.714844 444.5v60h-139.429688v-60zm0 0" fill="#e5ebf5"/><path d="m186.285156 444.5h30v60h-30zm0 0" fill="#cad8ea"/><path d="m241 341.597656h30v102.902344h-30zm0 0" fill="#72869e"/><path d="m504.5 459.5v30h-178.785156v-30zm0 0" fill="#72869e"/><path d="m186.285156 459.5v30h-178.785156v-30zm0 0" fill="#72869e"/><path d="m241 341.597656h15v102.902344h-15zm0 0" fill="#536275"/><path d="m325.714844 459.5h30v30h-30zm0 0" fill="#536275"/><path d="m7.5 459.5h30v30h-30zm0 0" fill="#536275"/><path d="m87.855469 63.183594c0 11.914062-9.65625 21.570312-21.570313 21.570312-11.914062 0-21.570312-9.65625-21.570312-21.570312 0-11.914063 9.65625-21.570313 21.570312-21.570313 11.914063 0 21.570313 9.65625 21.570313 21.570313zm0 0" fill="#e2fc85"/><path d="m87.855469 174.550781c0 11.910157-9.65625 21.570313-21.570313 21.570313-11.914062 0-21.570312-9.660156-21.570312-21.570313 0-11.914062 9.65625-21.574219 21.570312-21.574219 11.914063 0 21.570313 9.660157 21.570313 21.574219zm0 0" fill="#e2fc85"/><path d="m87.855469 285.914062c0 11.914063-9.65625 21.570313-21.570313 21.570313-11.914062 0-21.570312-9.65625-21.570312-21.570313 0-11.914062 9.65625-21.570312 21.570312-21.570312 11.914063 0 21.570313 9.65625 21.570313 21.570312zm0 0" fill="#e2fc85"/><path d="m64.714844 63.183594c0-8.300782 4.695312-15.5 11.570312-19.105469-2.988281-1.566406-6.386718-2.46875-10-2.46875-11.914062 0-21.570312 9.660156-21.570312 21.574219 0 11.914062 9.65625 21.570312 21.570312 21.570312 3.613282 0 7.011719-.898437 10-2.46875-6.875-3.605468-11.570312-10.800781-11.570312-19.101562zm0 0" fill="#6ad34d"/><path d="m64.714844 174.550781c0-8.304687 4.695312-15.5 11.570312-19.105469-2.988281-1.570312-6.386718-2.46875-10-2.46875-11.914062 0-21.570312 9.660157-21.570312 21.570313 0 11.914063 9.65625 21.574219 21.570312 21.574219 3.613282 0 7.011719-.898438 10-2.46875-6.875-3.605469-11.570312-10.800782-11.570312-19.101563zm0 0" fill="#6ad34d"/><path d="m64.714844 285.914062c0-8.300781 4.695312-15.496093 11.570312-19.101562-2.988281-1.570312-6.386718-2.46875-10-2.46875-11.914062 0-21.570312 9.65625-21.570312 21.570312 0 11.914063 9.65625 21.574219 21.570312 21.574219 3.613282 0 7.011719-.898437 10-2.46875-6.875-3.605469-11.570312-10.800781-11.570312-19.105469zm0 0" fill="#6ad34d"/><path d="m421.355469 41.613281h43.144531v43.140625h-43.144531zm0 0" fill="#e5ebf5"/><path d="m378.214844 41.613281h43.140625v43.140625h-43.140625zm0 0" fill="#e5ebf5"/><path d="m335.070312 41.613281h43.144532v43.140625h-43.144532zm0 0" fill="#e5ebf5"/><path d="m421.355469 152.976562h43.144531v43.144532h-43.144531zm0 0" fill="#e5ebf5"/><path d="m378.214844 152.976562h43.140625v43.144532h-43.140625zm0 0" fill="#e5ebf5"/><path d="m335.070312 152.976562h43.144532v43.144532h-43.144532zm0 0" fill="#e5ebf5"/><path d="m421.355469 264.34375h43.144531v43.144531h-43.144531zm0 0" fill="#e5ebf5"/><path d="m378.214844 264.34375h43.140625v43.144531h-43.140625zm0 0" fill="#e5ebf5"/><path d="m335.070312 264.34375h43.144532v43.144531h-43.144532zm0 0" fill="#e5ebf5"/><g fill="#cad8ea"><path d="m421.355469 41.613281h20v43.140625h-20zm0 0"/><path d="m378.214844 41.613281h20v43.140625h-20zm0 0"/><path d="m335.070312 41.613281h20v43.140625h-20zm0 0"/><path d="m421.355469 152.976562h20v43.144532h-20zm0 0"/><path d="m378.214844 152.976562h20v43.144532h-20zm0 0"/><path d="m335.070312 152.976562h20v43.144532h-20zm0 0"/><path d="m421.355469 264.34375h20v43.144531h-20zm0 0"/><path d="m378.214844 264.34375h20v43.144531h-20zm0 0"/><path d="m335.070312 264.34375h20v43.144531h-20zm0 0"/></g><path d="m276 482h-15v-15h15zm-25 0h-15v-15h15zm0 0" fill="#fff"/><path d="m492.789062 0h-473.578124l-19.210938 19.210938v87.945312l19.210938 19.207031h473.578124l19.210938-19.207031v-87.945312zm4.210938 100.941406-10.425781 10.425782h-461.148438l-10.425781-10.425782v-75.519531l10.425781-10.421875h461.148438l10.425781 10.421875zm0 0"/><path d="m178.785156 512h154.429688v-75h-154.429688zm15-60h124.429688v45h-124.429688zm0 0"/><path d="m263.5 369.597656h15v46.902344h-15zm0 0"/><path d="m233.5 369.597656h15v46.902344h-15zm0 0"/><path d="m353.714844 467h143.285156v15h-143.285156v15h158.285156v-45h-158.285156zm0 0"/><path d="m0 497h158.285156v-15h-143.285156v-15h143.285156v-15h-158.285156zm0 0"/><path d="m66.285156 34.113281c-16.027344 0-29.070312 13.039063-29.070312 29.070313 0 16.027344 13.042968 29.070312 29.070312 29.070312 16.03125 0 29.070313-13.042968 29.070313-29.070312 0-16.03125-13.039063-29.070313-29.070313-29.070313zm0 43.140625c-7.757812 0-14.070312-6.3125-14.070312-14.070312 0-7.757813 6.3125-14.070313 14.070312-14.070313 7.761719 0 14.070313 6.3125 14.070313 14.070313 0 7.757812-6.308594 14.070312-14.070313 14.070312zm0 0"/><path d="m95.355469 174.550781c0-16.03125-13.039063-29.074219-29.070313-29.074219-16.027344 0-29.070312 13.042969-29.070312 29.074219 0 16.027344 13.042968 29.070313 29.070312 29.070313 16.03125 0 29.070313-13.042969 29.070313-29.070313zm-43.140625 0c0-7.761719 6.3125-14.074219 14.070312-14.074219 7.761719 0 14.070313 6.3125 14.070313 14.074219 0 7.757813-6.3125 14.070313-14.070313 14.070313-7.757812 0-14.070312-6.3125-14.070312-14.070313zm0 0"/><path d="m95.355469 285.914062c0-16.027343-13.039063-29.070312-29.070313-29.070312-16.027344 0-29.070312 13.042969-29.070312 29.070312 0 16.03125 13.042968 29.074219 29.070312 29.074219 16.03125 0 29.070313-13.042969 29.070313-29.074219zm-43.140625 0c0-7.757812 6.3125-14.070312 14.070312-14.070312 7.761719 0 14.070313 6.3125 14.070313 14.070312 0 7.761719-6.3125 14.074219-14.070313 14.074219-7.757812 0-14.070312-6.3125-14.070312-14.074219zm0 0"/><path d="m327.570312 34.113281v58.140625h144.429688v-58.140625zm43.144532 43.140625h-28.144532v-28.140625h28.144532zm43.140625 0h-28.140625v-28.140625h28.140625zm43.144531-28.140625v28.140625h-28.144531v-28.140625zm0 0"/><path d="m472 203.621094v-58.144532h-144.429688v58.144532zm-43.144531-43.144532h28.144531v28.144532h-28.144531zm-58.140625 28.144532h-28.144532v-28.144532h28.144532zm15-28.144532h28.144531v28.144532h-28.144531zm0 0"/><path d="m472 314.988281v-58.144531h-144.429688v58.144531zm-43.144531-43.144531h28.144531v28.144531h-28.144531zm-58.140625 28.144531h-28.144532v-28.144531h28.144532zm15-28.144531h28.144531v28.144531h-28.144531zm0 0"/><path d="m497 212.308594-10.425781 10.421875h-461.148438l-10.425781-10.421875v-69.371094h-15v75.585938l19.210938 19.207031h473.578124l19.210938-19.207031v-75.585938h-15zm0 0"/><path d="m497 323.675781-10.425781 10.421875h-461.148438l-10.425781-10.421875v-69.371093h-15v75.582031l19.210938 19.210937h473.578124l19.210938-19.210937v-75.582031h-15zm0 0"/></svg>