<?xml version="1.0" encoding="iso-8859-1"?>
<!-- Generator: Adobe Illustrator 19.0.0, SVG Export Plug-In . SVG Version: 6.00 Build 0)  -->
<svg xmlns="http://www.w3.org/2000/svg" xmlns:xlink="http://www.w3.org/1999/xlink" version="1.1" id="Layer_1" x="0px" y="0px" viewBox="0 0 508.464 508.464" style="enable-background:new 0 0 508.464 508.464;" xml:space="preserve" width="106.66" height="106.66">
<g>
	<g>
		<g>
			<polygon style="fill:#D9EEF7;" points="373.463,467.443 381.422,499.279 126.731,499.279 134.69,467.443 166.527,467.443      341.627,467.443    "/>
			<polygon style="fill:#AAC4DA;" points="325.709,403.77 341.627,467.443 166.527,467.443 182.445,403.77    "/>
			<polygon style="fill:#D9EEF7;" points="500.809,324.179 500.809,403.77 325.709,403.77 182.445,403.77 7.345,403.77      7.345,324.179    "/>
			<rect x="7.345" y="53.57" style="fill:#FFBF78;" width="493.464" height="270.609"/>
			<rect x="7.345" y="53.57" style="fill:#FBA23D;" width="47.755" height="270.609"/>
			<rect x="7.345" y="324.179" style="fill:#AAC4DA;" width="47.755" height="79.591"/>
			<g>
				<polygon style="fill:#95ADC0;" points="182.445,403.77 166.527,467.443 214.281,467.443 230.199,403.77     "/>
			</g>
		</g>
		<g>
			<g id="XMLID_4_">
				<g>
					<path style="fill:#95ADC0;" d="M222.24,77.447c21.967,0,39.795,17.828,39.795,39.795s-17.828,39.795-39.795,39.795       s-39.795-17.828-39.795-39.795S200.273,77.447,222.24,77.447z"/>
					<path style="fill:#D9EEF7;" d="M333.668,93.365v47.755H298.17c-1.433,4.457-3.263,8.755-5.412,12.894l25.151,25.151       l-33.747,33.747l-25.151-25.151c-4.139,2.149-8.437,3.98-12.894,5.412v35.498h-47.755v-35.498       c-4.457-1.433-8.755-3.263-12.894-5.412l-25.151,25.151l-33.747-33.747l25.151-25.151c-2.149-4.139-3.98-8.437-5.412-12.894       h-35.498V93.365h35.498c1.433-4.457,3.263-8.755,5.412-12.894l-25.151-25.151l0.955-0.955l32.791-32.791l25.151,25.151       c4.139-2.149,8.437-3.98,12.894-5.412V5.815h47.755v35.498c4.457,1.433,8.755,3.263,12.894,5.412l25.151-25.151l32.791,32.791       l0.955,0.955l-25.151,25.151c2.149,4.139,3.98,8.437,5.412,12.894H333.668z M262.036,117.242       c0-21.967-17.828-39.795-39.795-39.795s-39.795,17.828-39.795,39.795s17.828,39.795,39.795,39.795       S262.036,139.21,262.036,117.242z"/>
				</g>
			</g>
		</g>
	</g>
	<g>
		<g>
			<g id="XMLID_3_">
				<g>
					<g>
						<rect x="190.56" y="358.159" style="fill:#FFFFFF;" width="87.55" height="15"/>
					</g>
					<g>
						<rect x="325.864" y="358.159" style="fill:#FFFFFF;" width="15.918" height="15"/>
					</g>
					<g>
						<polygon style="fill:#FFFFFF;" points="79.132,301.527 31.836,301.527 31.836,254.232 46.836,254.232 46.836,286.527         79.132,286.527       "/>
					</g>
					<g>
						<rect x="63.214" y="79.591" style="fill:#FFFFFF;" width="15.918" height="15"/>
					</g>
					<g>
						<rect x="31.377" y="111.428" style="fill:#FFFFFF;" width="15.919" height="15"/>
					</g>
					<g>
						<path style="fill:#FFFFFF;" d="M420.914,262.191h-15v-39.337h7.5c22.196,0,40.254-18.058,40.254-40.254        s-18.058-40.255-40.254-40.255s-40.255,18.059-40.255,40.255h-15c0-30.468,24.787-55.255,55.255-55.255        c30.467,0,55.254,24.787,55.254,55.255c0,27.923-20.822,51.075-47.754,54.747V262.191z"/>
					</g>
					<g>
						<rect x="405.455" y="278.568" style="fill:#FFFFFF;" width="15.918" height="15"/>
					</g>
					<g>
						<rect x="373.618" y="79.591" style="fill:#FFFFFF;" width="15.918" height="15"/>
					</g>
					<g>
						<rect x="150.764" y="278.568" style="fill:#FFFFFF;" width="15.918" height="15"/>
					</g>
					<g>
						<path style="fill:#231F20;" d="M319.419,47.755l-35.102-35.103l-26.688,26.688c-1.281-0.573-2.568-1.114-3.856-1.622V0        h-62.754v37.72c-1.288,0.507-2.574,1.048-3.856,1.621l-26.688-26.688l-44.353,44.354l26.688,26.688        c-0.573,1.282-1.114,2.568-1.622,3.856h-37.719v62.755h37.719c0.508,1.288,1.049,2.574,1.622,3.856l-26.688,26.688        l44.353,44.353l26.689-26.688c1.282,0.574,2.567,1.115,3.855,1.622v37.719h62.754v-37.719        c1.288-0.507,2.574-1.048,3.856-1.622l26.688,26.688l44.353-44.353l-26.688-26.688c0.573-1.282,1.114-2.568,1.622-3.856        h37.719V87.55h-37.719c-0.508-1.288-1.049-2.574-1.622-3.856l20.938-20.938h170.543v111.886h15V47.755H319.419z         M283.726,80.737l2.531,4.876c2.015,3.878,3.673,7.825,4.928,11.731l1.674,5.205h33.465v32.755h-33.465l-1.674,5.205        c-1.255,3.906-2.913,7.854-4.928,11.731l-2.531,4.876l23.731,23.732l-23.14,23.14l-23.731-23.731l-4.874,2.531        c-3.883,2.016-7.831,3.674-11.734,4.928l-5.205,1.674v33.464h-32.754v-33.464l-5.205-1.674        c-3.901-1.254-7.849-2.912-11.733-4.928l-4.874-2.531l-23.732,23.731l-23.14-23.14l23.731-23.732l-2.531-4.876        c-2.015-3.878-3.673-7.825-4.928-11.731l-1.674-5.205h-33.465V102.55h33.465l1.674-5.205        c1.255-3.906,2.913-7.854,4.928-11.731l2.531-4.876l-23.731-23.731l23.14-23.141l23.732,23.732l4.876-2.531        c3.878-2.015,7.825-3.673,11.731-4.928l5.205-1.674V15h32.754v33.465l5.205,1.674c3.908,1.256,7.855,2.914,11.732,4.928        l4.876,2.531l23.731-23.732l23.14,23.141L283.726,80.737z"/>
						<path style="fill:#231F20;" d="M493.464,318.364H214.437v15h279.027v64.591H331.72h-5.855H182.6h-5.855H15v-64.591h175.56v-15        H15V62.755h80.05v-15H0v365.2h172.994l-12.169,48.673H128.99l-11.709,46.836h273.901l-11.709-46.836h-31.835l-12.169-48.673        h172.994V198.519h-15V318.364z M367.763,476.628l4.209,16.836H136.492l4.209-16.836H270.15v-15h-93.863l12.167-48.673h131.554        l12.167,48.673h-38.149v15H367.763z"/>
						<rect x="294.027" y="358.159" style="fill:#231F20;" width="15.918" height="15"/>
						<polygon style="fill:#231F20;" points="476.628,126.887 476.628,79.591 437.291,79.591 437.291,94.591 461.628,94.591         461.628,126.887       "/>
						<rect x="31.377" y="79.591" style="fill:#231F20;" width="15.919" height="15"/>
						<rect x="31.377" y="143.264" style="fill:#231F20;" width="15.919" height="15"/>
						<path style="fill:#231F20;" d="M222.396,71.632c-26.079,0-47.296,21.217-47.296,47.296c0,26.078,21.217,47.295,47.296,47.295        s47.296-21.217,47.296-47.295C269.691,92.849,248.475,71.632,222.396,71.632z M222.396,151.223        c-17.808,0-32.296-14.487-32.296-32.295s14.488-32.296,32.296-32.296s32.296,14.488,32.296,32.296        S240.203,151.223,222.396,151.223z"/>
						<rect x="405.455" y="79.591" style="fill:#231F20;" width="15.918" height="15"/>
						<rect x="182.6" y="278.568" style="fill:#231F20;" width="206.937" height="15"/>
						<rect x="118.928" y="278.568" style="fill:#231F20;" width="15.918" height="15"/>
						<rect x="309.945" y="246.732" style="fill:#231F20;" width="79.591" height="15"/>
					</g>
				</g>
			</g>
		</g>
	</g>
</g>















</svg>
