<?xml version="1.0" encoding="iso-8859-1"?>
<!-- Generator: Adobe Illustrator 19.0.0, SVG Export Plug-In . SVG Version: 6.00 Build 0)  -->
<svg xmlns="http://www.w3.org/2000/svg" xmlns:xlink="http://www.w3.org/1999/xlink" version="1.1" id="Layer_1" x="0px" y="0px" viewBox="0 0 508.505 508.505" style="enable-background:new 0 0 508.505 508.505;" xml:space="preserve" width="106.66" height="106.66">
<g>
	<g>
		<g>
			<circle style="fill:#FD6D8A;" cx="136.596" cy="131.15" r="125.335"/>
			<g>
				<path style="fill:#DF4861;" d="M89.596,131.15c0-55.529,36.147-102.549,86.168-119.006c-12.333-4.058-25.476-6.329-39.167-6.329      c-69.22,0-125.335,56.114-125.335,125.335s56.114,125.335,125.335,125.335c13.691,0,26.834-2.271,39.167-6.329      C125.743,233.698,89.596,186.679,89.596,131.15z"/>
			</g>
		</g>
		<g>
			<circle style="fill:#FD6D8A;" cx="371.598" cy="373.985" r="125.335"/>
			<g>
				<path style="fill:#DF4861;" d="M324.598,373.985c0-55.529,36.147-102.549,86.168-119.006      c-12.333-4.058-25.476-6.329-39.167-6.329c-69.22,0-125.335,56.114-125.335,125.335S302.378,499.32,371.598,499.32      c13.691,0,26.834-2.271,39.167-6.329C360.745,476.534,324.598,429.514,324.598,373.985z"/>
			</g>
		</g>
		<g>
			<g id="XMLID_67_">
				<g>
					<polygon style="fill:#FFBF78;" points="473.433,44.982 473.433,138.983 332.431,138.983 332.431,44.982 402.932,91.983             "/>
					<polygon style="fill:#FBA23D;" points="473.433,44.982 402.932,91.983 332.431,44.982      "/>
					<polygon style="fill:#FBA23D;" points="175.763,358.319 105.262,405.319 34.762,358.319      "/>
					<polygon style="fill:#FFBF78;" points="175.763,452.319 34.762,452.319 34.762,358.319 105.262,405.319 175.763,358.319             "/>
					<path style="fill:#D9EEF7;" d="M418.599,428.819l-7.833,7.833h-78.334l-7.833-7.833c0-25.929,21.072-47,47-47       S418.599,402.891,418.599,428.819z"/>
					<path style="fill:#D9EEF7;" d="M371.598,303.485c21.62,0,39.167,17.547,39.167,39.167s-17.547,39.167-39.167,39.167       s-39.167-17.547-39.167-39.167S349.978,303.485,371.598,303.485z"/>
					<path style="fill:#D9EEF7;" d="M183.596,185.984l-7.833,7.833H97.429l-7.833-7.833c0-25.929,21.072-47,47-47       S183.596,160.055,183.596,185.984z"/>
					<path style="fill:#D9EEF7;" d="M136.596,60.649c21.62,0,39.167,17.547,39.167,39.167s-17.547,39.167-39.167,39.167       s-39.167-17.547-39.167-39.167S114.976,60.649,136.596,60.649z"/>
				</g>
			</g>
		</g>
	</g>
	<g>
		<g>
			<g id="XMLID_46_">
				<g>
					<g>
						<rect x="215.085" y="133.168" style="fill:#FFFFFF;" width="15.667" height="15"/>
					</g>
					<g>
						<rect x="199.419" y="148.835" style="fill:#FFFFFF;" width="15.666" height="15"/>
					</g>
					<g>
						<rect x="277.753" y="376.004" style="fill:#FFFFFF;" width="15.667" height="15"/>
					</g>
					<g>
						<rect x="293.42" y="360.337" style="fill:#FFFFFF;" width="15.666" height="15"/>
					</g>
					<g>
						<path style="fill:#231F20;" d="M136.751,265.669c73.245,0,132.835-59.589,132.835-132.835c0-10.767-1.284-21.38-3.813-31.667        h59.313v47h156.001V39.167H325.087v47h-63.961c-4.922-13.13-11.866-25.341-20.696-36.359l-11.705,9.38        c8.85,11.044,15.568,23.433,19.974,36.837c3.906,11.793,5.887,24.177,5.887,36.809c0,64.975-52.86,117.835-117.835,117.835        c-64.974,0-117.834-52.86-117.834-117.835C18.917,67.86,71.777,15,136.751,15c28.739,0,56.413,10.459,77.925,29.452        l9.928-11.245C200.349,11.793,169.148,0,136.751,0C63.506,0,3.917,59.589,3.917,132.834        C3.917,206.08,63.506,265.669,136.751,265.669z M340.087,133.168V60.681l63,42l63.001-42v72.487H340.087z M357.357,54.167        h91.46l-45.73,30.487L357.357,54.167z"/>
						<path style="fill:#231F20;" d="M82.251,187.668v3.106l12.227,12.227h84.547l12.228-12.227v-3.107        c0-20.496-11.378-38.378-28.144-47.683c12.254-8.419,20.31-22.526,20.31-38.485c0-25.732-20.935-46.667-46.667-46.667        s-46.667,20.935-46.667,46.667c0,15.958,8.056,30.066,20.31,38.485C93.628,149.291,82.251,167.172,82.251,187.668z         M105.084,101.501c0-17.461,14.206-31.667,31.667-31.667s31.667,14.206,31.667,31.667s-14.206,31.667-31.667,31.667        S105.084,118.962,105.084,101.501z M136.751,148.168c20.773,0,37.853,16.119,39.389,36.506l-3.328,3.328H100.69l-3.327-3.328        C98.899,164.288,115.979,148.168,136.751,148.168z"/>
						<rect x="42.75" y="133.168" style="fill:#231F20;" width="15.667" height="15"/>
						<rect x="58.417" y="117.501" style="fill:#231F20;" width="15.667" height="15"/>
						<path style="fill:#231F20;" d="M371.754,242.836c-22.538,0-44.802,5.743-64.383,16.607l7.277,13.116        c17.36-9.632,37.107-14.723,57.105-14.723c64.974,0,117.834,52.86,117.834,117.834s-52.86,117.834-117.834,117.834        c-64.975,0-117.835-52.86-117.835-117.834c0-35.969,16.106-69.505,44.19-92.009l-9.381-11.705        c-31.654,25.367-49.81,63.169-49.81,103.714c0,8.134,0.739,16.099,2.146,23.833h-57.647v-47H27.417v109.001h156.001v-47        h61.297c16.65,54.358,67.299,94.001,127.039,94.001c73.245,0,132.834-59.589,132.834-132.834S444.999,242.836,371.754,242.836        z M151.148,367.503l-45.73,30.487l-45.73-30.487H151.148z M42.417,446.504v-72.487l63.001,42l63-42v72.487H42.417z"/>
						<path style="fill:#231F20;" d="M317.253,430.504v3.107l12.228,12.227h84.547l12.227-12.227v-3.106        c0-20.496-11.377-38.378-28.143-47.683c12.254-8.419,20.31-22.526,20.31-38.485c0-25.732-20.935-46.667-46.667-46.667        s-46.667,20.935-46.667,46.667c0,15.958,8.056,30.066,20.31,38.485C328.631,392.126,317.253,410.008,317.253,430.504z         M340.087,344.337c0-17.461,14.206-31.667,31.667-31.667s31.667,14.206,31.667,31.667s-14.206,31.667-31.667,31.667        S340.087,361.798,340.087,344.337z M371.754,391.004c20.772,0,37.852,16.12,39.388,36.506l-3.327,3.328h-72.121l-3.328-3.328        C333.901,407.123,350.98,391.004,371.754,391.004z"/>
						<rect x="450.088" y="376.004" style="fill:#231F20;" width="15.667" height="15"/>
						<rect x="434.421" y="391.67" style="fill:#231F20;" width="15.667" height="15"/>
						<rect x="129.251" y="281.669" style="fill:#231F20;" width="15" height="54.834"/>
						<rect x="395.587" y="164.168" style="fill:#231F20;" width="15" height="62.667"/>
						<rect x="160.251" y="321.17" style="fill:#231F20;" width="15.667" height="15"/>
						<rect x="160.251" y="289.836" style="fill:#231F20;" width="15.667" height="15"/>
						<rect x="363.92" y="164.501" style="fill:#231F20;" width="15.667" height="15"/>
						<rect x="363.92" y="195.835" style="fill:#231F20;" width="15.667" height="15"/>
					</g>
				</g>
			</g>
		</g>
	</g>
</g>















</svg>
